#N canvas 1005 243 335 489 10;
#X obj 57 42 comport 9600;
#X msg 12 8 devices;
#X obj 12 43 bng 15 250 50 0 empty empty empty 17 7 0 10 -262144 -1
-1;
#X msg 68 8 open 3;
#X msg 119 9 close 3;
#X obj 13 162 G;
#X obj 44 83 repack 3;
#X obj 43 164 D;
#X obj 24 123 route 1 2 3 4;
#X obj 80 167 A;
#X obj 115 165 E;
#X connect 0 0 6 0;
#X connect 1 0 0 0;
#X connect 2 0 6 0;
#X connect 3 0 0 0;
#X connect 4 0 0 0;
#X connect 6 0 8 0;
#X connect 8 0 5 0;
#X connect 8 1 7 0;
#X connect 8 2 9 0;
#X connect 8 3 10 0;
