#N canvas 83 23 1613 953 10;
#X msg 553 95 devices;
#X obj 620 790 readsf~;
#X msg 621 665 open 01.wav \, 1;
#X obj 683 740 readsf~;
#X obj 862 655 readsf~;
#X obj 761 927 dac~;
#X obj 779 685 readsf~;
#X obj 1031 742 readsf~;
#X msg 683 622 open 03.wav \, 1;
#X msg 779 545 open 04.wav \, 1;
#X msg 862 588 open 05.wav \, 1;
#X msg 947 546 open 06.wav \, 1;
#X msg 1031 477 open 09.wav \, 1;
#X obj 947 651 readsf~;
#X obj 513 355 select 0 1;
#X obj 958 242 print;
#X obj 865 241 print;
#X obj 780 240 print;
#X obj 1032 239 print;
#X obj 693 239 print;
#X obj 580 269 print;
#X obj 648 202 repack 6;
#X obj 640 169 comport 9600;
#X msg 671 98 open 1;
#X msg 759 100 close 1;
#X obj 621 548 until;
#X obj 604 222 unpack float float float float float float float float
float float float float, f 79;
#X obj 689 390 select 0 1;
#X obj 683 526 until;
#X obj 775 344 select 0 1;
#X obj 779 439 until;
#X obj 860 362 select 0 1;
#X obj 862 420 until, f 9;
#X obj 946 397 select 0 1;
#X obj 947 481 until;
#X obj 1032 368 select 0 1;
#X obj 1031 421 until;
#X obj 1073 242 print;
#X obj 994 243 print;
#X obj 904 244 print;
#X obj 818 244 print;
#X obj 736 245 print;
#X obj 630 256 print;
#X connect 0 0 22 0;
#X connect 1 0 5 0;
#X connect 1 0 5 1;
#X connect 2 0 1 0;
#X connect 3 0 5 0;
#X connect 3 0 5 1;
#X connect 4 0 5 0;
#X connect 4 0 5 1;
#X connect 6 0 5 0;
#X connect 6 0 5 1;
#X connect 7 0 5 0;
#X connect 7 0 5 1;
#X connect 8 0 3 0;
#X connect 9 0 6 0;
#X connect 10 0 4 0;
#X connect 11 0 13 0;
#X connect 12 0 7 0;
#X connect 13 0 5 0;
#X connect 14 1 25 0;
#X connect 21 0 26 0;
#X connect 22 0 21 0;
#X connect 23 0 22 0;
#X connect 24 0 22 0;
#X connect 25 0 2 0;
#X connect 26 0 20 0;
#X connect 26 1 42 0;
#X connect 26 2 19 0;
#X connect 26 3 41 0;
#X connect 26 4 17 0;
#X connect 26 5 40 0;
#X connect 26 6 16 0;
#X connect 26 7 39 0;
#X connect 26 8 15 0;
#X connect 26 9 38 0;
#X connect 26 10 18 0;
#X connect 26 11 37 0;
#X connect 27 1 28 0;
#X connect 28 0 8 0;
#X connect 29 1 30 0;
#X connect 30 0 9 0;
#X connect 31 1 32 0;
#X connect 32 0 10 0;
#X connect 33 0 34 0;
#X connect 34 0 11 0;
#X connect 35 0 36 0;
#X connect 36 0 12 0;
