#N canvas 0 23 1406 588 10;
#X msg 121 245 devices;
#X obj 266 374 readsf~;
#X obj 313 374 readsf~;
#X obj 406 374 readsf~;
#X obj 359 374 readsf~;
#X obj 500 374 readsf~;
#X msg 257 358 open 03.wav \, 1;
#X msg 346 358 open 04.wav \, 1;
#X msg 434 357 open 05.wav \, 1;
#X msg 522 357 open 06.wav \, 1;
#X msg 610 357 open 09.wav \, 1;
#X obj 453 374 readsf~;
#X obj 170 326 select 0 1;
#X obj 170 261 comport 9600;
#X msg 171 245 open 1;
#X msg 215 245 close 1;
#X msg 170 358 open 01.wav \, 1;
#X obj 154 277 bng 15 250 50 0 empty empty empty 17 7 0 10 -262144
-1 -1;
#X obj 170 309 sel 0;
#X obj 494 326 select 0 1;
#X obj 342 309 sel 0;
#X obj 363 326 select 0 1;
#X obj 272 309 sel 0;
#X obj 299 326 select 0 1;
#X obj 238 309 sel 0;
#X obj 234 326 select 0 1;
#X obj 205 309 sel 0;
#X obj 429 326 select 0 1;
#X obj 307 309 sel 0;
#X obj 136 293 print;
#X obj 170 342 counter;
#X obj 310 342 counter;
#X obj 355 342 counter;
#X obj 264 342 counter;
#X obj 217 342 counter;
#X obj 402 342 counter;
#X obj 547 374 readsf~;
#X obj 593 374 readsf~;
#X obj 640 374 readsf~;
#X obj 687 374 readsf~;
#X obj 734 374 readsf~;
#X msg 570 392 open fool.wav \, 1;
#X msg 673 392 open datEpicSong.wav \, 1;
#X msg 1090 390 open chosen.wav \, 1;
#X msg 673 409 stop;
#X msg 815 391 open VaderBreathing.wav \, 1;
#X msg 978 390 open reveal.wav \, 1;
#X msg 571 409 stop;
#X msg 978 408 stop;
#X msg 815 408 stop;
#X msg 1091 407 stop;
#X obj 1110 373 sel 1 2 3 4 5 6;
#X msg 1203 390 open hello.wav \, 1;
#X obj 781 374 readsf~;
#X msg 1204 406 stop;
#X obj 828 374 readsf~;
#X obj 875 374 readsf~;
#X obj 969 374 readsf~;
#X obj 922 374 readsf~;
#X obj 1063 374 readsf~;
#X obj 1016 374 readsf~;
#X obj 559 326 select 0 1;
#X obj 377 309 sel 0;
#X obj 883 326 select 0 1;
#X obj 552 309 sel 0;
#X obj 753 326 select 0 1;
#X obj 482 309 sel 0;
#X obj 688 326 select 0 1;
#X obj 447 309 sel 0;
#X obj 623 326 select 0 1;
#X obj 412 309 sel 0;
#X obj 818 326 select 0 1;
#X obj 517 309 sel 0;
#X obj 449 342 counter;
#X obj 682 342 counter;
#X obj 589 342 counter;
#X obj 542 342 counter;
#X obj 495 342 counter;
#X obj 635 342 counter;
#X msg 699 357 open 12.wav \, 1;
#X msg 787 357 open 24.wav \, 1;
#X msg 875 357 open 27.wav \, 1;
#X msg 1141 357 open 58.wav \, 1;
#X msg 964 357 open 32.wav \, 1;
#X msg 1053 357 open 39.wav \, 1;
#X obj 170 277 repack 25;
#X obj 170 292 unpack float float float float float float float float
float float float float float float float float float float float float
float float float float float, f 156;
#X obj 422 392 dac~;
#X connect 0 0 13 0;
#X connect 1 0 87 0;
#X connect 1 0 87 1;
#X connect 2 0 87 0;
#X connect 2 0 87 1;
#X connect 3 0 87 0;
#X connect 3 0 87 1;
#X connect 4 0 87 0;
#X connect 4 0 87 1;
#X connect 5 0 87 0;
#X connect 5 0 87 1;
#X connect 6 0 2 0;
#X connect 7 0 4 0;
#X connect 8 0 3 0;
#X connect 9 0 11 0;
#X connect 10 0 5 0;
#X connect 11 0 87 0;
#X connect 12 1 30 1;
#X connect 13 0 85 0;
#X connect 14 0 13 0;
#X connect 15 0 13 0;
#X connect 16 0 1 0;
#X connect 17 0 85 0;
#X connect 18 1 30 0;
#X connect 19 1 31 1;
#X connect 20 1 31 0;
#X connect 21 1 32 1;
#X connect 22 1 32 0;
#X connect 23 1 33 1;
#X connect 24 1 33 0;
#X connect 25 1 34 1;
#X connect 26 1 34 0;
#X connect 27 1 35 1;
#X connect 28 1 35 0;
#X connect 30 0 16 0;
#X connect 31 0 10 0;
#X connect 32 0 8 0;
#X connect 33 0 7 0;
#X connect 34 0 6 0;
#X connect 35 0 9 0;
#X connect 36 0 87 0;
#X connect 36 0 87 1;
#X connect 37 0 87 1;
#X connect 37 0 87 0;
#X connect 38 0 87 0;
#X connect 38 0 87 1;
#X connect 39 0 87 0;
#X connect 39 0 87 1;
#X connect 40 0 87 0;
#X connect 40 0 87 1;
#X connect 41 0 36 0;
#X connect 41 0 44 0;
#X connect 41 0 49 0;
#X connect 41 0 48 0;
#X connect 41 0 50 0;
#X connect 41 0 54 0;
#X connect 42 0 37 0;
#X connect 42 0 47 0;
#X connect 42 0 49 0;
#X connect 42 0 48 0;
#X connect 42 0 50 0;
#X connect 42 0 54 0;
#X connect 43 0 40 0;
#X connect 43 0 47 0;
#X connect 43 0 44 0;
#X connect 43 0 49 0;
#X connect 43 0 48 0;
#X connect 43 0 54 0;
#X connect 44 0 37 0;
#X connect 45 0 38 0;
#X connect 45 0 47 0;
#X connect 45 0 44 0;
#X connect 45 0 48 0;
#X connect 45 0 50 0;
#X connect 45 0 54 0;
#X connect 46 0 39 0;
#X connect 46 0 47 0;
#X connect 46 0 49 0;
#X connect 46 0 50 0;
#X connect 46 0 44 0;
#X connect 46 0 54 0;
#X connect 47 0 36 0;
#X connect 48 0 39 0;
#X connect 49 0 38 0;
#X connect 50 0 40 0;
#X connect 51 0 41 0;
#X connect 51 1 42 0;
#X connect 51 2 45 0;
#X connect 51 3 46 0;
#X connect 51 4 43 0;
#X connect 51 5 52 0;
#X connect 52 0 50 0;
#X connect 52 0 48 0;
#X connect 52 0 49 0;
#X connect 52 0 44 0;
#X connect 52 0 47 0;
#X connect 52 0 53 0;
#X connect 53 0 87 0;
#X connect 53 0 87 1;
#X connect 54 0 53 0;
#X connect 55 0 87 0;
#X connect 55 0 87 1;
#X connect 56 0 87 0;
#X connect 56 0 87 1;
#X connect 57 0 87 0;
#X connect 57 0 87 1;
#X connect 58 0 87 0;
#X connect 58 0 87 1;
#X connect 59 0 87 0;
#X connect 59 0 87 1;
#X connect 60 0 87 0;
#X connect 60 0 87 1;
#X connect 61 1 73 1;
#X connect 62 1 73 0;
#X connect 63 1 74 1;
#X connect 64 1 74 0;
#X connect 65 1 75 1;
#X connect 66 1 75 0;
#X connect 67 1 76 1;
#X connect 68 1 76 0;
#X connect 69 1 77 1;
#X connect 70 1 77 0;
#X connect 71 1 78 1;
#X connect 72 1 78 0;
#X connect 73 0 79 0;
#X connect 74 0 82 0;
#X connect 75 0 81 0;
#X connect 76 0 83 0;
#X connect 77 0 80 0;
#X connect 78 0 84 0;
#X connect 79 0 55 0;
#X connect 80 0 56 0;
#X connect 81 0 57 0;
#X connect 82 0 59 0;
#X connect 83 0 58 0;
#X connect 84 0 60 0;
#X connect 85 0 29 0;
#X connect 85 0 86 0;
#X connect 86 0 12 0;
#X connect 86 1 18 0;
#X connect 86 2 25 0;
#X connect 86 3 26 0;
#X connect 86 4 23 0;
#X connect 86 5 24 0;
#X connect 86 6 21 0;
#X connect 86 7 22 0;
#X connect 86 8 27 0;
#X connect 86 9 28 0;
#X connect 86 10 19 0;
#X connect 86 11 20 0;
#X connect 86 12 61 0;
#X connect 86 13 62 0;
#X connect 86 14 69 0;
#X connect 86 15 70 0;
#X connect 86 16 67 0;
#X connect 86 17 68 0;
#X connect 86 18 65 0;
#X connect 86 19 66 0;
#X connect 86 20 71 0;
#X connect 86 21 72 0;
#X connect 86 22 63 0;
#X connect 86 23 64 1;
#X connect 86 24 51 0;
