#N canvas 356 105 1256 953 10;
#X msg 173 58 devices;
#X obj 232 543 readsf~;
#X obj 338 548 readsf~;
#X obj 512 549 readsf~;
#X obj 425 767 dac~;
#X obj 424 548 readsf~;
#X obj 704 542 readsf~;
#X msg 338 445 open 03.wav \, 1;
#X msg 424 447 open 04.wav \, 1;
#X msg 510 447 open 05.wav \, 1;
#X msg 613 445 open 06.wav \, 1;
#X msg 704 446 open 09.wav \, 1;
#X obj 613 544 readsf~;
#X obj 225 240 select 0 1;
#X obj 225 130 comport 9600;
#X msg 225 52 open 1;
#X msg 270 58 close 1;
#X obj 225 200 unpack float float float float float float float float
float float float float, f 79;
#X msg 232 445 open 01.wav \, 1;
#X obj 184 172 repack 12;
#X obj 175 154 bng 15 250 50 0 empty empty empty 17 7 0 10 -262144
-1 -1;
#X obj 755 132 metro 200;
#X obj 267 322 sel 0;
#X obj 653 241 select 0 1;
#X obj 696 328 sel 0;
#X obj 481 240 select 0 1;
#X obj 524 329 sel 0;
#X obj 396 239 select 0 1;
#X obj 439 327 sel 0;
#X obj 310 238 select 0 1;
#X obj 353 324 sel 0;
#X obj 567 240 select 0 1;
#X obj 610 330 sel 0;
#X floatatom 282 415 5 0 0 0 - - -, f 5;
#X floatatom 391 417 5 0 0 0 - - -, f 5;
#X floatatom 471 409 5 0 0 0 - - -, f 5;
#X floatatom 561 416 5 0 0 0 - - -, f 5;
#X floatatom 671 416 5 0 0 0 - - -, f 5;
#X floatatom 768 417 5 0 0 0 - - -, f 5;
#X obj 98 111 delay 10 1 msec;
#X obj 81 350 print;
#X obj 232 385 counter;
#X obj 704 381 counter;
#X obj 510 382 counter;
#X obj 424 381 counter;
#X obj 338 381 counter;
#X obj 613 381 counter;
#X connect 0 0 14 0;
#X connect 1 0 4 0;
#X connect 1 0 4 1;
#X connect 2 0 4 0;
#X connect 2 0 4 1;
#X connect 3 0 4 0;
#X connect 3 0 4 1;
#X connect 5 0 4 0;
#X connect 5 0 4 1;
#X connect 6 0 4 0;
#X connect 6 0 4 1;
#X connect 7 0 2 0;
#X connect 8 0 5 0;
#X connect 9 0 3 0;
#X connect 10 0 12 0;
#X connect 11 0 6 0;
#X connect 12 0 4 0;
#X connect 13 1 41 1;
#X connect 14 0 19 0;
#X connect 15 0 14 0;
#X connect 15 0 39 0;
#X connect 16 0 14 0;
#X connect 17 0 13 0;
#X connect 17 1 22 0;
#X connect 17 2 29 0;
#X connect 17 3 30 0;
#X connect 17 4 27 0;
#X connect 17 5 28 0;
#X connect 17 6 25 0;
#X connect 17 7 26 0;
#X connect 17 8 31 0;
#X connect 17 9 32 0;
#X connect 17 10 23 0;
#X connect 17 11 24 0;
#X connect 18 0 1 0;
#X connect 19 0 17 0;
#X connect 19 0 40 0;
#X connect 20 0 19 0;
#X connect 22 1 41 0;
#X connect 23 1 42 1;
#X connect 24 1 42 0;
#X connect 25 1 43 1;
#X connect 26 1 43 0;
#X connect 27 1 44 1;
#X connect 28 1 44 0;
#X connect 29 1 45 1;
#X connect 30 1 45 0;
#X connect 31 1 46 1;
#X connect 32 1 46 0;
#X connect 39 0 20 0;
#X connect 41 0 18 0;
#X connect 41 1 33 0;
#X connect 42 0 11 0;
#X connect 42 1 38 0;
#X connect 43 0 9 0;
#X connect 43 1 36 0;
#X connect 44 0 8 0;
#X connect 44 1 35 0;
#X connect 45 0 7 0;
#X connect 45 1 34 0;
#X connect 46 0 10 0;
#X connect 46 1 37 0;
