#N canvas 40 25 1256 953 10;
#X msg 173 58 devices;
#X obj 238 544 readsf~;
#X obj 338 548 readsf~;
#X obj 512 549 readsf~;
#X obj 425 767 dac~;
#X obj 424 548 readsf~;
#X obj 681 546 readsf~;
#X msg 338 448 open 03.wav \, 1;
#X msg 424 447 open 04.wav \, 1;
#X msg 510 447 open 05.wav \, 1;
#X msg 592 444 open 06.wav \, 1;
#X msg 687 445 open 09.wav \, 1;
#X obj 597 548 readsf~;
#X obj 225 258 select 0 1;
#X obj 225 130 comport 9600;
#X msg 225 52 open 1;
#X msg 270 58 close 1;
#X obj 225 199 unpack float float float float float float float float
float float float float, f 79;
#X obj 567 253 select 0 1;
#X obj 597 403 until;
#X obj 595 310 float;
#X obj 396 256 select 0 1;
#X obj 424 409 until;
#X obj 424 350 float;
#X obj 310 257 select 0 1;
#X obj 338 409 until;
#X obj 338 348 float;
#X obj 481 257 select 0 1;
#X obj 512 407 until;
#X obj 512 313 float;
#X obj 653 251 select 0 1;
#X obj 681 400 until;
#X obj 681 302 float;
#X msg 235 446 open 01.wav \, 1;
#X obj 184 172 repack 12;
#X obj 175 154 bng 15 250 50 0 empty empty empty 17 7 0 10 -262144
-1 -1;
#X obj 755 132 metro 200;
#X obj 203 353 bng 15 250 50 0 empty empty empty 17 7 0 10 -262144
-1 -1;
#X obj 241 396 counter;
#X connect 0 0 14 0;
#X connect 1 0 4 0;
#X connect 1 0 4 1;
#X connect 2 0 4 0;
#X connect 2 0 4 1;
#X connect 3 0 4 0;
#X connect 3 0 4 1;
#X connect 5 0 4 0;
#X connect 5 0 4 1;
#X connect 6 0 4 0;
#X connect 6 0 4 1;
#X connect 7 0 2 0;
#X connect 8 0 5 0;
#X connect 9 0 3 0;
#X connect 10 0 12 0;
#X connect 11 0 6 0;
#X connect 12 0 4 0;
#X connect 13 1 38 0;
#X connect 14 0 34 0;
#X connect 15 0 14 0;
#X connect 15 0 35 0;
#X connect 16 0 14 0;
#X connect 17 0 13 0;
#X connect 17 2 24 0;
#X connect 17 3 26 1;
#X connect 17 4 21 0;
#X connect 17 5 23 1;
#X connect 17 6 27 0;
#X connect 17 7 29 1;
#X connect 17 8 18 0;
#X connect 17 9 20 1;
#X connect 17 10 30 0;
#X connect 17 11 32 1;
#X connect 18 1 20 0;
#X connect 19 0 10 0;
#X connect 20 0 19 0;
#X connect 21 1 23 0;
#X connect 22 0 8 0;
#X connect 23 0 22 0;
#X connect 24 1 26 0;
#X connect 25 0 7 0;
#X connect 26 0 25 0;
#X connect 27 1 29 0;
#X connect 28 0 9 0;
#X connect 29 0 28 0;
#X connect 30 1 32 0;
#X connect 31 0 11 0;
#X connect 32 0 31 0;
#X connect 33 0 1 0;
#X connect 34 0 17 0;
#X connect 35 0 34 0;
#X connect 38 0 33 0;
