#N canvas 0 23 1100 744 10;
#X msg 173 58 devices;
#X obj 228 562 readsf~;
#X obj 254 641 dac~;
#X obj 225 258 select 0 1;
#X obj 225 130 comport 9600;
#X msg 225 52 open 1;
#X msg 270 58 close 1;
#X msg 242 453 open 01.wav \, 1;
#X obj 559 467 print playing1;
#X obj 518 128 bng 15 250 50 0 empty empty empty 17 7 0 10 -262144
-1 -1;
#X obj 99 385 print;
#X obj 203 353 bng 15 250 50 0 empty empty empty 17 7 0 10 -262144
-1 -1;
#X obj 475 300 print a;
#X obj 251 209 unpack float float;
#X obj 249 165 repack 2;
#X floatatom 350 419 5 0 0 0 - - -, f 5;
#X obj 306 329 sel 0;
#X obj 241 396 counter;
#X connect 0 0 4 0;
#X connect 1 0 2 0;
#X connect 1 0 2 1;
#X connect 3 1 17 1;
#X connect 4 0 14 0;
#X connect 5 0 4 0;
#X connect 5 0 9 0;
#X connect 6 0 4 0;
#X connect 7 0 1 0;
#X connect 9 0 14 0;
#X connect 13 0 3 0;
#X connect 13 1 12 0;
#X connect 13 1 16 0;
#X connect 14 0 13 0;
#X connect 16 1 17 0;
#X connect 17 0 7 0;
#X connect 17 1 15 0;
