#N canvas -293 117 1852 953 10;
#X msg 523 87 devices;
#X obj 600 577 readsf~;
#X obj 688 577 readsf~;
#X obj 862 578 readsf~;
#X obj 836 856 dac~;
#X obj 774 577 readsf~;
#X obj 1031 575 readsf~;
#X msg 688 477 open 03.wav \, 1;
#X msg 774 476 open 04.wav \, 1;
#X msg 860 476 open 05.wav \, 1;
#X msg 942 473 open 06.wav \, 1;
#X msg 1037 488 open 09.wav \, 1;
#X obj 947 577 readsf~;
#X obj 575 287 select 0 1;
#X obj 575 159 comport 9600;
#X msg 575 87 open 1;
#X msg 620 87 close 1;
#X obj 600 443 until;
#X obj 575 228 unpack float float float float float float float float
float float float float, f 79;
#X obj 600 378 float;
#X obj 917 282 select 0 1;
#X obj 947 432 until;
#X obj 945 339 float;
#X obj 746 285 select 0 1;
#X obj 774 438 until;
#X obj 774 379 float;
#X obj 660 286 select 0 1;
#X obj 688 438 until;
#X obj 688 377 float;
#X obj 831 286 select 0 1;
#X obj 862 436 until;
#X obj 862 342 float;
#X obj 1003 280 select 0 1;
#X obj 1031 429 until;
#X obj 1031 331 float;
#X msg 600 477 open 01.wav \, 1;
#X obj 611 507 print playing1;
#X obj 701 510 print playing2;
#X obj 778 537 print playing3;
#X obj 868 537 print playing4;
#X obj 952 534 print playing5;
#X obj 1090 528 print playing6;
#X obj 358 445 print repeats1;
#X obj 1201 771 print repeats2;
#X obj 1312 676 print repeats3;
#X obj 1390 566 print repeats4;
#X obj 1441 453 print repeats5;
#X obj 1465 320 print repeats6;
#X obj 659 193 repack 12;
#X obj 741 168 bng 15 250 50 0 empty empty empty 17 7 0 10 -262144
-1 -1;
#X obj 1047 448 delay 1 1 persec;
#X obj 1158 490 print delayyy;
#X connect 0 0 14 0;
#X connect 1 0 4 0;
#X connect 1 0 4 1;
#X connect 2 0 4 0;
#X connect 2 0 4 1;
#X connect 3 0 4 0;
#X connect 3 0 4 1;
#X connect 5 0 4 0;
#X connect 5 0 4 1;
#X connect 6 0 4 0;
#X connect 6 0 4 1;
#X connect 7 0 2 0;
#X connect 7 0 37 0;
#X connect 8 0 5 0;
#X connect 8 0 38 0;
#X connect 9 0 3 0;
#X connect 9 0 39 0;
#X connect 10 0 12 0;
#X connect 10 0 40 0;
#X connect 11 0 6 0;
#X connect 11 0 41 0;
#X connect 12 0 4 0;
#X connect 13 1 19 0;
#X connect 14 0 48 0;
#X connect 15 0 14 0;
#X connect 16 0 14 0;
#X connect 17 0 35 0;
#X connect 18 0 13 0;
#X connect 18 1 19 1;
#X connect 18 2 26 0;
#X connect 18 3 28 1;
#X connect 18 4 23 0;
#X connect 18 5 25 1;
#X connect 18 6 29 0;
#X connect 18 7 31 1;
#X connect 18 8 20 0;
#X connect 18 9 22 1;
#X connect 18 10 32 0;
#X connect 18 11 34 1;
#X connect 19 0 17 0;
#X connect 19 0 42 0;
#X connect 20 1 22 0;
#X connect 21 0 10 0;
#X connect 22 0 21 0;
#X connect 22 0 46 0;
#X connect 23 1 25 0;
#X connect 24 0 8 0;
#X connect 25 0 24 0;
#X connect 25 0 44 0;
#X connect 26 1 28 0;
#X connect 27 0 7 0;
#X connect 28 0 27 0;
#X connect 28 0 43 0;
#X connect 29 1 31 0;
#X connect 30 0 9 0;
#X connect 31 0 30 0;
#X connect 31 0 45 0;
#X connect 32 1 34 0;
#X connect 33 0 50 0;
#X connect 34 0 33 0;
#X connect 34 0 47 0;
#X connect 35 0 1 0;
#X connect 35 0 36 0;
#X connect 48 0 18 0;
#X connect 49 0 48 0;
#X connect 50 0 11 0;
#X connect 50 0 51 0;
